<?xml version="1.0" encoding="iso-8859-1"?>
<!-- Generator: Adobe Illustrator 19.0.0, SVG Export Plug-In . SVG Version: 6.00 Build 0)  -->
<svg version="1.1" id="Layer_1" xmlns="http://www.w3.org/2000/svg" xmlns:xlink="http://www.w3.org/1999/xlink" x="0px" y="0px"
	 viewBox="0 0 512 512" style="enable-background:new 0 0 512 512;" xml:space="preserve">
<g>
	<path style="fill:#959CB3;" d="M52.966,264.828H8.828C3.953,264.828,0,260.875,0,256s3.953-8.828,8.828-8.828h44.138
		c4.875,0,8.828,3.953,8.828,8.828S57.841,264.828,52.966,264.828z"/>
	<path style="fill:#959CB3;" d="M503.172,264.828h-44.138c-4.875,0-8.828-3.953-8.828-8.828s3.953-8.828,8.828-8.828h44.138
		c4.875,0,8.828,3.953,8.828,8.828S508.047,264.828,503.172,264.828z"/>
	<path style="fill:#959CB3;" d="M256,512c-4.875,0-8.828-3.953-8.828-8.828v-44.138c0-4.875,3.953-8.828,8.828-8.828
		s8.828,3.953,8.828,8.828v44.138C264.828,508.047,260.875,512,256,512z"/>
	<path style="fill:#959CB3;" d="M256,61.793c-4.875,0-8.828-3.953-8.828-8.828V8.828C247.172,3.953,251.125,0,256,0
		s8.828,3.953,8.828,8.828v44.138C264.828,57.841,260.875,61.793,256,61.793z"/>
</g>
<g>
	<path style="fill:#C3E678;" d="M361.931,256c-14.519,0-27.663,5.852-37.231,15.313c12.22,15.148,19.576,34.376,19.576,55.308
		h61.793c4.875,0,8.828-3.953,8.828-8.828v-8.828C414.897,279.713,391.183,256,361.931,256z"/>
	<circle style="fill:#C3E678;" cx="361.931" cy="203.034" r="35.31"/>
</g>
<g>
	<path style="fill:#A5D76E;" d="M353.103,203.034c0-15.971,8.003-29.308,18.916-33.671c-3.217-0.964-6.558-1.64-10.089-1.64
		c-19.501,0-35.31,15.809-35.31,35.31s15.809,35.31,35.31,35.31c3.531,0,6.872-0.675,10.089-1.64
		C361.107,232.342,353.103,219.005,353.103,203.034z"/>
	<path style="fill:#A5D76E;" d="M361.931,256c-14.519,0-27.663,5.852-37.231,15.313c4.755,5.894,8.74,12.416,11.87,19.411
		c3.741-17.105,17.311-30.52,34.566-33.871C368.141,256.326,365.077,256,361.931,256z"/>
</g>
<g>
	<path style="fill:#FFE182;" d="M187.3,271.311C177.732,261.85,164.588,256,150.069,256c-29.252,0-52.966,23.713-52.966,52.966
		v8.828c0,4.875,3.953,8.828,8.828,8.828h61.793C167.724,305.688,175.081,286.46,187.3,271.311z"/>
	<circle style="fill:#FFE182;" cx="150.069" cy="203.034" r="35.31"/>
</g>
<g>
	<path style="fill:#FFCD78;" d="M123.586,319.264v-19.126c0-21.482,15.36-39.338,35.688-43.286
		c-2.995-0.526-6.059-0.852-9.205-0.852c-29.252,0-52.966,23.713-52.966,52.966v8.828c0,4.875,3.953,8.828,8.828,8.828h25.012
		C126.88,326.621,123.586,323.327,123.586,319.264z"/>
	<path style="fill:#FFCD78;" d="M141.241,203.034c0-15.971,8.003-29.308,18.916-33.671c-3.217-0.964-6.558-1.64-10.089-1.64
		c-19.501,0-35.31,15.809-35.31,35.31s15.809,35.31,35.31,35.31c3.531,0,6.872-0.675,10.089-1.64
		C149.245,232.342,141.241,219.005,141.241,203.034z"/>
</g>
<g>
	<path style="fill:#FF6464;" d="M314.85,353.103h-117.7c-6.5,0-11.77-5.27-11.77-11.77v-14.712C185.379,287.618,216.998,256,256,256
		l0,0c39.003,0,70.621,31.618,70.621,70.621v14.712C326.621,347.833,321.351,353.103,314.85,353.103z"/>
	<circle style="fill:#FF6464;" cx="256" cy="194.207" r="44.138"/>
</g>
<g>
	<path style="fill:#D2555A;" d="M220.69,343.295v-28.444c0-28.642,20.481-52.451,47.583-57.715C264.28,256.435,260.194,256,256,256
		c-39.002,0-70.621,31.618-70.621,70.621v14.712c0,6.5,5.269,11.77,11.77,11.77h33.348
		C225.081,353.103,220.69,348.712,220.69,343.295z"/>
	<path style="fill:#D2555A;" d="M244.966,194.207c0-19.964,10.005-36.634,23.646-42.088c-4.021-1.206-8.198-2.05-12.611-2.05
		c-24.377,0-44.138,19.761-44.138,44.138c0,24.376,19.761,44.138,44.138,44.138c4.414,0,8.59-0.844,12.611-2.05
		C254.97,230.84,244.966,214.169,244.966,194.207z"/>
</g>
<path style="fill:#C7CFE2;" d="M503.172,247.172h-9.052C489.561,122.764,389.236,22.439,264.828,17.879V8.828
	C264.828,3.953,260.875,0,256,0s-8.828,3.953-8.828,8.828v9.052C122.764,22.439,22.439,122.764,17.879,247.172H8.828
	C3.953,247.172,0,251.125,0,256s3.953,8.828,8.828,8.828h9.052c4.559,124.408,104.885,224.734,229.293,229.293v9.052
	c0,4.875,3.953,8.828,8.828,8.828s8.828-3.953,8.828-8.828v-9.052c124.408-4.559,224.734-104.885,229.293-229.293h9.052
	c4.875,0,8.828-3.953,8.828-8.828S508.047,247.172,503.172,247.172z M256,476.69c-121.689,0-220.69-99-220.69-220.69
	s99-220.69,220.69-220.69s220.69,99,220.69,220.69S377.689,476.69,256,476.69z"/>
<g>
</g>
<g>
</g>
<g>
</g>
<g>
</g>
<g>
</g>
<g>
</g>
<g>
</g>
<g>
</g>
<g>
</g>
<g>
</g>
<g>
</g>
<g>
</g>
<g>
</g>
<g>
</g>
<g>
</g>
</svg>
